{
  "accessors": {
    "accessor": {
      "bufferView": "bufferView_1",
      "byteOffset": 0,
      "byteStride": 0,
      "componentType": 5123,
      "count": 148200,
      "type": "SCALAR",
      "min": [
        0
      ],
      "max": [
        31303
      ]
    },
    "accessor_12": {
      "bufferView": "bufferView_0",
      "byteOffset": 0,
      "byteStride": 0,
      "componentType": 5126,
      "count": 31304,
      "type": "VEC3",
      "min": [
        -851.4749755859375,
        -425.6520080566406,
        -325.968994140625
      ],
      "max": [
        -141.64599609375,
        579.0679931640625,
        314.28399658203125
      ]
    },
    "accessor_13": {
      "bufferView": "bufferView_0",
      "byteOffset": 375648,
      "byteStride": 0,
      "componentType": 5126,
      "count": 31304,
      "type": "VEC3",
      "min": [
        -0.9999420046806335,
        -0.9999989867210388,
        -0.9999930262565613
      ],
      "max": [
        0.9999200105667114,
        1,
        0.9999819993972778
      ]
    }
  },
  "asset": {
    "generator": "obj2gltf",
    "profile": {
      "api": "WebGL",
      "version": "1.0"
    },
    "version": "1.0",
    "premultipliedAlpha": true
  },
  "buffers": {
    "buffer_0": {
      "type": "arraybuffer",
      "byteLength": 1047696,
      "uri": "data:application/octet-stream;base64,"
    }
  },
  "bufferViews": {
    "bufferView_0": {
      "buffer": "buffer_0",
      "byteLength": 751296,
      "byteOffset": 0,
      "target": 34962
    },
    "bufferView_1": {
      "buffer": "buffer_0",
      "byteLength": 296400,
      "byteOffset": 751296,
      "target": 34963
    }
  },
  "extensionsUsed": [],
  "images": {},
  "materials": {
    "1 - Default": {
      "technique": "technique0",
      "values": {
        "ambient": [
          0.588235,
          0.588235,
          0.588235,
          1
        ],
        "diffuse": [
          0.588235,
          0.588235,
          0.588235,
          1
        ],
        "emission": [
          0,
          0,
          0,
          1
        ],
        "specular": [
          0.898039,
          0.898039,
          0.898039,
          1
        ],
        "shininess": 32,
        "transparency": 1
      }
    }
  },
  "meshes": {
    "rootNode_mesh_0": {
      "name": "rootNode_mesh",
      "primitives": [
        {
          "attributes": {
            "POSITION": "accessor_12",
            "NORMAL": "accessor_13"
          },
          "material": "1 - Default",
          "mode": 4,
          "indices": "accessor"
        }
      ]
    }
  },
  "nodes": {
    "rootNode": {
      "children": [],
      "meshes": [
        "rootNode_mesh_0"
      ],
      "matrix": [
        1,
        0,
        0,
        0,
        0,
        1,
        0,
        0,
        0,
        0,
        1,
        0,
        0,
        0,
        0,
        1
      ]
    }
  },
  "samplers": {},
  "scene": "scene",
  "scenes": {
    "scene": {
      "nodes": [
        "rootNode"
      ]
    }
  },
  "textures": {},
  "animations": {},
  "cameras": {},
  "programs": {
    "program0": {
      "attributes": [
        "a_position",
        "a_normal"
      ],
      "fragmentShader": "fragmentShader0",
      "vertexShader": "vertexShader0"
    }
  },
  "shaders": {
    "vertexShader0": {
      "type": 35633,
      "uri": "data:text/plain;base64,"
    },
    "fragmentShader0": {
      "type": 35632,
      "uri": "data:text/plain;base64,"
    }
  },
  "skins": {},
  "techniques": {
    "technique0": {
      "attributes": {
        "a_position": "position",
        "a_normal": "normal"
      },
      "parameters": {
        "modelViewMatrix": {
          "semantic": "MODELVIEW",
          "type": 35676
        },
        "projectionMatrix": {
          "semantic": "PROJECTION",
          "type": 35676
        },
        "normalMatrix": {
          "semantic": "MODELVIEWINVERSETRANSPOSE",
          "type": 35675
        },
        "ambient": {
          "type": 35666
        },
        "diffuse": {
          "type": 35666
        },
        "emission": {
          "type": 35666
        },
        "specular": {
          "type": 35666
        },
        "shininess": {
          "type": 5126
        },
        "transparency": {
          "type": 5126
        },
        "position": {
          "semantic": "POSITION",
          "type": 35665
        },
        "normal": {
          "semantic": "NORMAL",
          "type": 35665
        }
      },
      "program": "program0",
      "states": {
        "enable": [
          2884,
          2929
        ]
      },
      "uniforms": {
        "u_modelViewMatrix": "modelViewMatrix",
        "u_projectionMatrix": "projectionMatrix",
        "u_normalMatrix": "normalMatrix",
        "u_ambient": "ambient",
        "u_diffuse": "diffuse",
        "u_emission": "emission",
        "u_specular": "specular",
        "u_shininess": "shininess",
        "u_transparency": "transparency"
      }
    }
  }
}
